<mxfile host="app.diagrams.net" modified="2021-11-24T21:19:22.059Z" agent="5.0 (Macintosh; Intel Mac OS X 10_15_6) AppleWebKit/605.1.15 (KHTML, like Gecko) Version/15.1 Safari/605.1.15" etag="w8JvUyUt7VcEWMyxq18w" version="15.8.3" type="github">
  <diagram id="kgpKYQtTHZ0yAKxKKP6v" name="Page-1">
    <mxGraphModel dx="1440" dy="1042" grid="1" gridSize="10" guides="1" tooltips="1" connect="1" arrows="1" fold="1" page="1" pageScale="1" pageWidth="850" pageHeight="1100" math="0" shadow="0">
      <root>
        <mxCell id="0" />
        <mxCell id="1" parent="0" />
        <mxCell id="_f1RbuLWEJ0joPGijHF--23" value="Database system " style="shape=umlLifeline;perimeter=lifelinePerimeter;container=1;collapsible=0;recursiveResize=0;rounded=0;shadow=0;strokeWidth=1;" parent="1" vertex="1">
          <mxGeometry x="560" y="80" width="140" height="710" as="geometry" />
        </mxCell>
        <mxCell id="_f1RbuLWEJ0joPGijHF--24" value="" style="points=[];perimeter=orthogonalPerimeter;rounded=0;shadow=0;strokeWidth=1;" parent="_f1RbuLWEJ0joPGijHF--23" vertex="1">
          <mxGeometry x="65" y="260" width="10" height="280" as="geometry" />
        </mxCell>
        <mxCell id="_f1RbuLWEJ0joPGijHF--59" value="" style="html=1;points=[];perimeter=orthogonalPerimeter;labelBorderColor=none;" parent="_f1RbuLWEJ0joPGijHF--23" vertex="1">
          <mxGeometry x="70" y="330" width="10" height="40" as="geometry" />
        </mxCell>
        <mxCell id="_f1RbuLWEJ0joPGijHF--74" value="" style="html=1;points=[];perimeter=orthogonalPerimeter;labelBorderColor=none;" parent="_f1RbuLWEJ0joPGijHF--23" vertex="1">
          <mxGeometry x="70" y="410" width="10" height="40" as="geometry" />
        </mxCell>
        <mxCell id="_f1RbuLWEJ0joPGijHF--98" value="&lt;span style=&quot;font-size: 11px ; text-align: left ; background-color: rgb(255 , 255 , 255)&quot;&gt;Process&amp;nbsp;&lt;/span&gt;" style="text;html=1;align=center;verticalAlign=middle;resizable=0;points=[];autosize=1;strokeColor=none;fillColor=none;" parent="_f1RbuLWEJ0joPGijHF--23" vertex="1">
          <mxGeometry x="80" y="315" width="60" height="20" as="geometry" />
        </mxCell>
        <mxCell id="_f1RbuLWEJ0joPGijHF--100" value="&lt;span style=&quot;font-size: 11px ; text-align: left ; background-color: rgb(255 , 255 , 255)&quot;&gt;Process&amp;nbsp;&lt;/span&gt;" style="text;html=1;align=center;verticalAlign=middle;resizable=0;points=[];autosize=1;strokeColor=none;fillColor=none;" parent="_f1RbuLWEJ0joPGijHF--23" vertex="1">
          <mxGeometry x="80" y="400" width="60" height="20" as="geometry" />
        </mxCell>
        <mxCell id="_f1RbuLWEJ0joPGijHF--61" value="" style="edgeStyle=orthogonalEdgeStyle;html=1;align=left;spacingLeft=2;endArrow=block;rounded=0;" parent="_f1RbuLWEJ0joPGijHF--23" edge="1">
          <mxGeometry x="-0.7117" y="10" relative="1" as="geometry">
            <mxPoint x="80" y="340" as="sourcePoint" />
            <Array as="points">
              <mxPoint x="140" y="340" />
              <mxPoint x="140" y="360" />
            </Array>
            <mxPoint x="80" y="360" as="targetPoint" />
            <mxPoint as="offset" />
          </mxGeometry>
        </mxCell>
        <mxCell id="_f1RbuLWEJ0joPGijHF--73" value="" style="edgeStyle=orthogonalEdgeStyle;html=1;align=left;spacingLeft=2;endArrow=block;rounded=0;" parent="_f1RbuLWEJ0joPGijHF--23" edge="1">
          <mxGeometry x="-0.8591" y="10" relative="1" as="geometry">
            <mxPoint x="80" y="420" as="sourcePoint" />
            <Array as="points">
              <mxPoint x="140" y="420" />
              <mxPoint x="140" y="440" />
            </Array>
            <mxPoint x="80" y="440" as="targetPoint" />
            <mxPoint as="offset" />
          </mxGeometry>
        </mxCell>
        <mxCell id="CC8uu6-L9tHG46O7VcGg-25" value="" style="endArrow=classic;html=1;rounded=0;fontSize=11;" parent="_f1RbuLWEJ0joPGijHF--23" edge="1">
          <mxGeometry width="50" height="50" relative="1" as="geometry">
            <mxPoint x="-110" y="340" as="sourcePoint" />
            <mxPoint x="59.5" y="340" as="targetPoint" />
          </mxGeometry>
        </mxCell>
        <mxCell id="CC8uu6-L9tHG46O7VcGg-54" value="" style="endArrow=block;dashed=1;endFill=0;endSize=12;html=1;rounded=0;fontSize=11;" parent="_f1RbuLWEJ0joPGijHF--23" edge="1">
          <mxGeometry width="160" relative="1" as="geometry">
            <mxPoint x="40" y="440" as="sourcePoint" />
            <mxPoint x="-110" y="440" as="targetPoint" />
            <Array as="points">
              <mxPoint x="50" y="440" />
              <mxPoint x="60" y="440" />
              <mxPoint x="40" y="440" />
            </Array>
          </mxGeometry>
        </mxCell>
        <mxCell id="CC8uu6-L9tHG46O7VcGg-53" value="&lt;span style=&quot;background-color: rgb(255 , 255 , 255)&quot;&gt;DisplaySuggActiv( )&lt;/span&gt;" style="text;html=1;align=center;verticalAlign=middle;resizable=0;points=[];autosize=1;strokeColor=none;fillColor=none;fontSize=11;" parent="_f1RbuLWEJ0joPGijHF--23" vertex="1">
          <mxGeometry x="-80" y="440" width="110" height="20" as="geometry" />
        </mxCell>
        <mxCell id="CC8uu6-L9tHG46O7VcGg-65" value="" style="endArrow=classic;html=1;rounded=0;fontSize=11;" parent="_f1RbuLWEJ0joPGijHF--23" target="_f1RbuLWEJ0joPGijHF--23" edge="1">
          <mxGeometry width="50" height="50" relative="1" as="geometry">
            <mxPoint x="-120" y="530" as="sourcePoint" />
            <mxPoint x="40" y="530" as="targetPoint" />
          </mxGeometry>
        </mxCell>
        <mxCell id="3nuBFxr9cyL0pnOWT2aG-5" value="User interface " style="shape=umlLifeline;perimeter=lifelinePerimeter;container=1;collapsible=0;recursiveResize=0;rounded=0;shadow=0;strokeWidth=1;" parent="1" vertex="1">
          <mxGeometry x="370" y="80" width="140" height="710" as="geometry" />
        </mxCell>
        <mxCell id="3nuBFxr9cyL0pnOWT2aG-6" value="" style="points=[];perimeter=orthogonalPerimeter;rounded=0;shadow=0;strokeWidth=1;" parent="3nuBFxr9cyL0pnOWT2aG-5" vertex="1">
          <mxGeometry x="65" y="160" width="10" height="380" as="geometry" />
        </mxCell>
        <mxCell id="CC8uu6-L9tHG46O7VcGg-13" value="" style="endArrow=classic;html=1;rounded=0;fontSize=11;" parent="3nuBFxr9cyL0pnOWT2aG-5" edge="1">
          <mxGeometry width="50" height="50" relative="1" as="geometry">
            <mxPoint x="-120" y="330" as="sourcePoint" />
            <mxPoint x="55" y="330" as="targetPoint" />
            <Array as="points">
              <mxPoint x="25" y="330" />
            </Array>
          </mxGeometry>
        </mxCell>
        <mxCell id="CC8uu6-L9tHG46O7VcGg-14" value="&lt;span style=&quot;background-color: rgb(255 , 255 , 255)&quot;&gt;Answer Qs( )&lt;/span&gt;" style="text;html=1;align=center;verticalAlign=middle;resizable=0;points=[];autosize=1;strokeColor=none;fillColor=none;fontSize=11;" parent="3nuBFxr9cyL0pnOWT2aG-5" vertex="1">
          <mxGeometry x="-70" y="310" width="80" height="20" as="geometry" />
        </mxCell>
        <mxCell id="CC8uu6-L9tHG46O7VcGg-33" value="" style="endArrow=block;dashed=1;endFill=0;endSize=12;html=1;rounded=0;fontSize=11;" parent="3nuBFxr9cyL0pnOWT2aG-5" edge="1">
          <mxGeometry width="160" relative="1" as="geometry">
            <mxPoint x="30" y="360" as="sourcePoint" />
            <mxPoint x="-120" y="360" as="targetPoint" />
            <Array as="points">
              <mxPoint x="40" y="360" />
              <mxPoint x="50" y="360" />
              <mxPoint x="30" y="360" />
            </Array>
          </mxGeometry>
        </mxCell>
        <mxCell id="_f1RbuLWEJ0joPGijHF--18" value="" style="endArrow=none;dashed=1;html=1;rounded=0;" parent="1" edge="1">
          <mxGeometry width="50" height="50" relative="1" as="geometry">
            <mxPoint x="64.35" y="800" as="sourcePoint" />
            <mxPoint x="64.44" y="210" as="targetPoint" />
          </mxGeometry>
        </mxCell>
        <mxCell id="_f1RbuLWEJ0joPGijHF--1" value="Covide 19 patients&amp;nbsp;" style="shape=umlActor;verticalLabelPosition=bottom;verticalAlign=top;html=1;outlineConnect=0;" parent="1" vertex="1">
          <mxGeometry x="40" y="80" width="50" height="100" as="geometry" />
        </mxCell>
        <mxCell id="_f1RbuLWEJ0joPGijHF--14" value="" style="html=1;points=[];perimeter=orthogonalPerimeter;labelBorderColor=none;" parent="1" vertex="1">
          <mxGeometry x="60" y="240" width="10" height="410" as="geometry" />
        </mxCell>
        <mxCell id="_f1RbuLWEJ0joPGijHF--25" value="Account " style="shape=umlLifeline;perimeter=lifelinePerimeter;container=1;collapsible=0;recursiveResize=0;rounded=0;shadow=0;strokeWidth=1;" parent="1" vertex="1">
          <mxGeometry x="170" y="80" width="140" height="710" as="geometry" />
        </mxCell>
        <mxCell id="_f1RbuLWEJ0joPGijHF--26" value="" style="points=[];perimeter=orthogonalPerimeter;rounded=0;shadow=0;strokeWidth=1;" parent="_f1RbuLWEJ0joPGijHF--25" vertex="1">
          <mxGeometry x="65" y="160" width="10" height="410" as="geometry" />
        </mxCell>
        <mxCell id="_f1RbuLWEJ0joPGijHF--103" value="&lt;span style=&quot;font-size: 11px ; background-color: rgb(255 , 255 , 255)&quot;&gt;Success open&amp;nbsp;&lt;/span&gt;&lt;span style=&quot;font-size: 11px ; background-color: rgb(255 , 255 , 255)&quot;&gt;an account&amp;nbsp;&lt;/span&gt;" style="text;html=1;align=center;verticalAlign=middle;resizable=0;points=[];autosize=1;strokeColor=none;fillColor=none;" parent="_f1RbuLWEJ0joPGijHF--25" vertex="1">
          <mxGeometry x="-85" y="220" width="140" height="20" as="geometry" />
        </mxCell>
        <mxCell id="_f1RbuLWEJ0joPGijHF--109" value="" style="edgeStyle=orthogonalEdgeStyle;html=1;align=left;spacingLeft=2;endArrow=block;rounded=0;" parent="_f1RbuLWEJ0joPGijHF--25" edge="1">
          <mxGeometry x="-0.6001" y="10" relative="1" as="geometry">
            <mxPoint x="80" y="260" as="sourcePoint" />
            <Array as="points">
              <mxPoint x="110" y="260" />
              <mxPoint x="110" y="280" />
            </Array>
            <mxPoint x="80" y="280" as="targetPoint" />
            <mxPoint as="offset" />
          </mxGeometry>
        </mxCell>
        <mxCell id="_f1RbuLWEJ0joPGijHF--114" value="&lt;span style=&quot;text-align: left; background-color: rgb(255, 255, 255); font-size: 12px;&quot;&gt;&lt;font style=&quot;font-size: 12px;&quot;&gt;Verify&amp;nbsp;&lt;/font&gt;&lt;/span&gt;" style="text;html=1;align=center;verticalAlign=middle;resizable=0;points=[];autosize=1;strokeColor=none;fillColor=none;fontSize=12;" parent="_f1RbuLWEJ0joPGijHF--25" vertex="1">
          <mxGeometry x="90" y="240" width="50" height="20" as="geometry" />
        </mxCell>
        <mxCell id="CC8uu6-L9tHG46O7VcGg-74" value="Success logout" style="text;html=1;align=center;verticalAlign=middle;resizable=0;points=[];autosize=1;strokeColor=none;fillColor=none;fontSize=11;" parent="_f1RbuLWEJ0joPGijHF--25" vertex="1">
          <mxGeometry x="-60" y="560" width="90" height="20" as="geometry" />
        </mxCell>
        <mxCell id="_f1RbuLWEJ0joPGijHF--93" value="&lt;span&gt;AddFeedback ( )&amp;nbsp;&lt;/span&gt;" style="text;html=1;align=center;verticalAlign=middle;resizable=0;points=[];autosize=1;strokeColor=none;fillColor=none;" parent="1" vertex="1">
          <mxGeometry x="280" y="580" width="110" height="20" as="geometry" />
        </mxCell>
        <mxCell id="_f1RbuLWEJ0joPGijHF--95" value="Add new Qs ( )&amp;nbsp;" style="text;html=1;align=center;verticalAlign=middle;resizable=0;points=[];autosize=1;strokeColor=none;fillColor=none;" parent="1" vertex="1">
          <mxGeometry x="490" y="590" width="100" height="20" as="geometry" />
        </mxCell>
        <mxCell id="_f1RbuLWEJ0joPGijHF--106" value="" style="edgeStyle=elbowEdgeStyle;elbow=horizontal;endArrow=classic;html=1;rounded=0;" parent="1" source="_f1RbuLWEJ0joPGijHF--25" target="_f1RbuLWEJ0joPGijHF--25" edge="1">
          <mxGeometry width="50" height="50" relative="1" as="geometry">
            <mxPoint x="200" y="490" as="sourcePoint" />
            <mxPoint x="250" y="440" as="targetPoint" />
            <Array as="points">
              <mxPoint x="300" y="450" />
              <mxPoint x="360" y="435" />
              <mxPoint x="320" y="445" />
              <mxPoint x="300" y="435" />
            </Array>
          </mxGeometry>
        </mxCell>
        <mxCell id="CC8uu6-L9tHG46O7VcGg-6" value="&lt;span style=&quot;background-color: rgb(255 , 255 , 255)&quot;&gt;Sign up ( )&lt;/span&gt;" style="text;html=1;align=center;verticalAlign=middle;resizable=0;points=[];autosize=1;strokeColor=none;fillColor=none;fontSize=11;" parent="1" vertex="1">
          <mxGeometry x="110" y="260" width="70" height="20" as="geometry" />
        </mxCell>
        <mxCell id="CC8uu6-L9tHG46O7VcGg-7" value="" style="endArrow=block;dashed=1;endFill=0;endSize=12;html=1;rounded=0;fontSize=11;entryX=1;entryY=0.153;entryDx=0;entryDy=0;entryPerimeter=0;" parent="1" target="_f1RbuLWEJ0joPGijHF--14" edge="1">
          <mxGeometry width="160" relative="1" as="geometry">
            <mxPoint x="225" y="299.7" as="sourcePoint" />
            <mxPoint x="85" y="299.7" as="targetPoint" />
            <Array as="points">
              <mxPoint x="160" y="300" />
            </Array>
          </mxGeometry>
        </mxCell>
        <mxCell id="CC8uu6-L9tHG46O7VcGg-10" value="" style="endArrow=classic;html=1;rounded=0;fontSize=11;" parent="1" target="_f1RbuLWEJ0joPGijHF--25" edge="1">
          <mxGeometry width="50" height="50" relative="1" as="geometry">
            <mxPoint x="70" y="280" as="sourcePoint" />
            <mxPoint x="200" y="280" as="targetPoint" />
          </mxGeometry>
        </mxCell>
        <mxCell id="CC8uu6-L9tHG46O7VcGg-11" value="" style="endArrow=classic;html=1;rounded=0;fontSize=11;" parent="1" edge="1">
          <mxGeometry width="50" height="50" relative="1" as="geometry">
            <mxPoint x="70" y="340" as="sourcePoint" />
            <mxPoint x="239.5" y="340" as="targetPoint" />
          </mxGeometry>
        </mxCell>
        <mxCell id="CC8uu6-L9tHG46O7VcGg-12" value="Login&amp;nbsp;" style="text;html=1;align=center;verticalAlign=middle;resizable=0;points=[];autosize=1;strokeColor=none;fillColor=none;fontSize=11;" parent="1" vertex="1">
          <mxGeometry x="130" y="320" width="50" height="20" as="geometry" />
        </mxCell>
        <mxCell id="CC8uu6-L9tHG46O7VcGg-15" value="&lt;span style=&quot;background-color: rgb(255 , 255 , 255)&quot;&gt;Success Login&lt;/span&gt;" style="text;html=1;align=center;verticalAlign=middle;resizable=0;points=[];autosize=1;strokeColor=none;fillColor=none;fontSize=11;" parent="1" vertex="1">
          <mxGeometry x="110" y="360" width="90" height="20" as="geometry" />
        </mxCell>
        <mxCell id="CC8uu6-L9tHG46O7VcGg-16" value="" style="endArrow=block;dashed=1;endFill=0;endSize=12;html=1;rounded=0;fontSize=11;entryX=1;entryY=0.153;entryDx=0;entryDy=0;entryPerimeter=0;" parent="1" edge="1">
          <mxGeometry width="160" relative="1" as="geometry">
            <mxPoint x="210" y="360" as="sourcePoint" />
            <mxPoint x="72.5" y="360" as="targetPoint" />
            <Array as="points">
              <mxPoint x="162.5" y="360.3299999999999" />
            </Array>
          </mxGeometry>
        </mxCell>
        <mxCell id="CC8uu6-L9tHG46O7VcGg-17" value="Log out&amp;nbsp;" style="text;html=1;align=center;verticalAlign=middle;resizable=0;points=[];autosize=1;strokeColor=none;fillColor=none;fontSize=11;" parent="1" vertex="1">
          <mxGeometry x="120" y="600" width="60" height="20" as="geometry" />
        </mxCell>
        <mxCell id="CC8uu6-L9tHG46O7VcGg-22" value="&lt;span style=&quot;background-color: rgb(255 , 255 , 255)&quot;&gt;Add Answers Qs( )&lt;/span&gt;" style="text;html=1;align=center;verticalAlign=middle;resizable=0;points=[];autosize=1;strokeColor=none;fillColor=none;fontSize=11;" parent="1" vertex="1">
          <mxGeometry x="480" y="400" width="110" height="20" as="geometry" />
        </mxCell>
        <mxCell id="CC8uu6-L9tHG46O7VcGg-29" value="&lt;span style=&quot;background-color: rgb(255 , 255 , 255)&quot;&gt;Display mood( )&lt;/span&gt;" style="text;html=1;align=center;verticalAlign=middle;resizable=0;points=[];autosize=1;strokeColor=none;fillColor=none;fontSize=11;" parent="1" vertex="1">
          <mxGeometry x="490" y="440" width="90" height="20" as="geometry" />
        </mxCell>
        <mxCell id="CC8uu6-L9tHG46O7VcGg-30" value="" style="endArrow=block;dashed=1;endFill=0;endSize=12;html=1;rounded=0;fontSize=11;" parent="1" edge="1">
          <mxGeometry width="160" relative="1" as="geometry">
            <mxPoint x="595" y="440" as="sourcePoint" />
            <mxPoint x="445" y="440" as="targetPoint" />
            <Array as="points">
              <mxPoint x="605" y="440" />
              <mxPoint x="615" y="440" />
              <mxPoint x="595" y="440" />
            </Array>
          </mxGeometry>
        </mxCell>
        <mxCell id="CC8uu6-L9tHG46O7VcGg-34" value="Display mood &amp;nbsp;( )&amp;nbsp;" style="text;html=1;align=center;verticalAlign=middle;resizable=0;points=[];autosize=1;strokeColor=none;fillColor=none;fontSize=11;" parent="1" vertex="1">
          <mxGeometry x="285" y="440" width="100" height="20" as="geometry" />
        </mxCell>
        <mxCell id="CC8uu6-L9tHG46O7VcGg-36" value="" style="endArrow=block;endFill=1;html=1;edgeStyle=orthogonalEdgeStyle;align=left;verticalAlign=top;rounded=0;fontSize=11;" parent="1" edge="1">
          <mxGeometry x="-1" y="-96" relative="1" as="geometry">
            <mxPoint x="445" y="500" as="sourcePoint" />
            <mxPoint x="615" y="500" as="targetPoint" />
            <mxPoint x="-65" y="-26" as="offset" />
          </mxGeometry>
        </mxCell>
        <mxCell id="_f1RbuLWEJ0joPGijHF--82" value="View suggActiv ( )&amp;nbsp;" style="text;html=1;align=center;verticalAlign=middle;resizable=0;points=[];autosize=1;strokeColor=none;fillColor=none;" parent="1" vertex="1">
          <mxGeometry x="280" y="550" width="110" height="20" as="geometry" />
        </mxCell>
        <mxCell id="CC8uu6-L9tHG46O7VcGg-49" value="Fetching sugg Atcvi ( )&amp;nbsp;" style="text;html=1;align=center;verticalAlign=middle;resizable=0;points=[];autosize=1;strokeColor=none;fillColor=none;fontSize=11;" parent="1" vertex="1">
          <mxGeometry x="470" y="480" width="130" height="20" as="geometry" />
        </mxCell>
        <mxCell id="CC8uu6-L9tHG46O7VcGg-52" value="&lt;span style=&quot;background-color: rgb(255 , 255 , 255)&quot;&gt;DisplaySuggActiv( )&lt;/span&gt;" style="text;html=1;align=center;verticalAlign=middle;resizable=0;points=[];autosize=1;strokeColor=none;fillColor=none;fontSize=11;" parent="1" vertex="1">
          <mxGeometry x="300" y="520" width="110" height="20" as="geometry" />
        </mxCell>
        <mxCell id="CC8uu6-L9tHG46O7VcGg-57" value="" style="endArrow=block;dashed=1;endFill=0;endSize=12;html=1;rounded=0;fontSize=11;" parent="1" edge="1">
          <mxGeometry width="160" relative="1" as="geometry">
            <mxPoint x="430" y="520" as="sourcePoint" />
            <mxPoint x="260" y="520" as="targetPoint" />
          </mxGeometry>
        </mxCell>
        <mxCell id="CC8uu6-L9tHG46O7VcGg-63" value="" style="endArrow=classic;html=1;rounded=0;fontSize=11;" parent="1" edge="1">
          <mxGeometry width="50" height="50" relative="1" as="geometry">
            <mxPoint x="250" y="570" as="sourcePoint" />
            <mxPoint x="430" y="570" as="targetPoint" />
          </mxGeometry>
        </mxCell>
        <mxCell id="CC8uu6-L9tHG46O7VcGg-64" value="" style="endArrow=classic;html=1;rounded=0;fontSize=11;" parent="1" edge="1">
          <mxGeometry width="50" height="50" relative="1" as="geometry">
            <mxPoint x="247.5" y="489.77" as="sourcePoint" />
            <mxPoint x="422.5" y="489.77" as="targetPoint" />
          </mxGeometry>
        </mxCell>
        <mxCell id="CC8uu6-L9tHG46O7VcGg-66" value="View mood ( )&amp;nbsp;" style="text;html=1;align=center;verticalAlign=middle;resizable=0;points=[];autosize=1;strokeColor=none;fillColor=none;fontSize=11;" parent="1" vertex="1">
          <mxGeometry x="295" y="470" width="90" height="20" as="geometry" />
        </mxCell>
        <mxCell id="CC8uu6-L9tHG46O7VcGg-69" value="" style="endArrow=classic;html=1;rounded=0;fontSize=11;" parent="1" edge="1">
          <mxGeometry width="50" height="50" relative="1" as="geometry">
            <mxPoint x="250" y="600" as="sourcePoint" />
            <mxPoint x="410" y="600" as="targetPoint" />
          </mxGeometry>
        </mxCell>
        <mxCell id="CC8uu6-L9tHG46O7VcGg-18" value="" style="endArrow=classic;html=1;rounded=0;fontSize=11;" parent="1" edge="1">
          <mxGeometry width="50" height="50" relative="1" as="geometry">
            <mxPoint x="75" y="620" as="sourcePoint" />
            <mxPoint x="235" y="620" as="targetPoint" />
          </mxGeometry>
        </mxCell>
        <mxCell id="CC8uu6-L9tHG46O7VcGg-71" value="" style="endArrow=block;dashed=1;endFill=0;endSize=12;html=1;rounded=0;fontSize=11;" parent="1" edge="1">
          <mxGeometry width="160" relative="1" as="geometry">
            <mxPoint x="225" y="640" as="sourcePoint" />
            <mxPoint x="80" y="640" as="targetPoint" />
            <Array as="points" />
          </mxGeometry>
        </mxCell>
      </root>
    </mxGraphModel>
  </diagram>
</mxfile>
